<mxfile host="Electron" agent="Mozilla/5.0 (Windows NT 10.0; Win64; x64) AppleWebKit/537.36 (KHTML, like Gecko) draw.io/26.0.9 Chrome/128.0.6613.186 Electron/32.2.5 Safari/537.36" version="26.0.9">
  <diagram name="Page-1" id="LvFk9JEEAda9i3XnKSkR">
    <mxGraphModel dx="1985" dy="1129" grid="1" gridSize="10" guides="1" tooltips="1" connect="1" arrows="1" fold="1" page="1" pageScale="1" pageWidth="850" pageHeight="1100" math="0" shadow="0">
      <root>
        <mxCell id="0" />
        <mxCell id="1" parent="0" />
        <mxCell id="UhHAUqcPnpGceWt_KBbi-1" value="Americana&lt;div&gt;Last Mile Delivery&lt;/div&gt;&lt;div&gt;Platform&lt;/div&gt;&lt;div&gt;(Centralized)&lt;/div&gt;" style="rounded=1;whiteSpace=wrap;html=1;" parent="1" vertex="1">
          <mxGeometry x="360" y="40" width="120" height="60" as="geometry" />
        </mxCell>
        <mxCell id="UhHAUqcPnpGceWt_KBbi-2" value="Countries&lt;div&gt;(KUW | EGY | KSA)&lt;/div&gt;" style="rounded=1;whiteSpace=wrap;html=1;" parent="1" vertex="1">
          <mxGeometry x="360" y="160" width="120" height="60" as="geometry" />
        </mxCell>
        <mxCell id="UhHAUqcPnpGceWt_KBbi-3" value="Brands&lt;div&gt;&lt;font style=&quot;font-size: 11px;&quot;&gt;(KFC, HRD, PH,WPY)&lt;/font&gt;&lt;/div&gt;" style="rounded=1;whiteSpace=wrap;html=1;" parent="1" vertex="1">
          <mxGeometry x="360" y="280" width="120" height="60" as="geometry" />
        </mxCell>
        <mxCell id="UhHAUqcPnpGceWt_KBbi-4" value="Channels&lt;div&gt;(100+)&lt;/div&gt;" style="rounded=1;whiteSpace=wrap;html=1;" parent="1" vertex="1">
          <mxGeometry x="360" y="400" width="120" height="60" as="geometry" />
        </mxCell>
        <mxCell id="UhHAUqcPnpGceWt_KBbi-6" value="Customer" style="shape=umlActor;verticalLabelPosition=bottom;verticalAlign=top;html=1;outlineConnect=0;" parent="1" vertex="1">
          <mxGeometry x="124" y="280" width="30" height="60" as="geometry" />
        </mxCell>
        <mxCell id="UhHAUqcPnpGceWt_KBbi-10" value="" style="endArrow=classic;startArrow=classic;html=1;rounded=0;entryX=0;entryY=0.5;entryDx=0;entryDy=0;" parent="1" target="UhHAUqcPnpGceWt_KBbi-3" edge="1">
          <mxGeometry width="50" height="50" relative="1" as="geometry">
            <mxPoint x="160" y="310" as="sourcePoint" />
            <mxPoint x="210" y="280" as="targetPoint" />
          </mxGeometry>
        </mxCell>
        <mxCell id="UhHAUqcPnpGceWt_KBbi-11" value="" style="endArrow=classic;html=1;rounded=0;entryX=0.417;entryY=-0.017;entryDx=0;entryDy=0;entryPerimeter=0;" parent="1" edge="1">
          <mxGeometry width="50" height="50" relative="1" as="geometry">
            <mxPoint x="420" y="100" as="sourcePoint" />
            <mxPoint x="420.03999999999996" y="158.98000000000002" as="targetPoint" />
          </mxGeometry>
        </mxCell>
        <mxCell id="UhHAUqcPnpGceWt_KBbi-12" value="" style="endArrow=classic;html=1;rounded=0;entryX=0.417;entryY=-0.017;entryDx=0;entryDy=0;entryPerimeter=0;" parent="1" edge="1">
          <mxGeometry width="50" height="50" relative="1" as="geometry">
            <mxPoint x="419.5" y="220" as="sourcePoint" />
            <mxPoint x="419.53999999999996" y="278.98" as="targetPoint" />
          </mxGeometry>
        </mxCell>
        <mxCell id="UhHAUqcPnpGceWt_KBbi-13" value="" style="endArrow=classic;html=1;rounded=0;entryX=0.417;entryY=-0.017;entryDx=0;entryDy=0;entryPerimeter=0;" parent="1" edge="1">
          <mxGeometry width="50" height="50" relative="1" as="geometry">
            <mxPoint x="419.5" y="341.02" as="sourcePoint" />
            <mxPoint x="419.53999999999996" y="400" as="targetPoint" />
          </mxGeometry>
        </mxCell>
        <mxCell id="UhHAUqcPnpGceWt_KBbi-20" value="" style="group" parent="1" vertex="1" connectable="0">
          <mxGeometry x="550" y="160" width="60" height="80" as="geometry" />
        </mxCell>
        <mxCell id="UhHAUqcPnpGceWt_KBbi-18" value="" style="dashed=0;outlineConnect=0;html=1;align=center;labelPosition=center;verticalLabelPosition=bottom;verticalAlign=top;shape=mxgraph.webicons.facebook;fillColor=#6294E4;gradientColor=#1A2665" parent="UhHAUqcPnpGceWt_KBbi-20" vertex="1">
          <mxGeometry x="10" width="40" height="40" as="geometry" />
        </mxCell>
        <mxCell id="UhHAUqcPnpGceWt_KBbi-19" value="Account&lt;div&gt;4&lt;/div&gt;" style="text;html=1;align=center;verticalAlign=middle;whiteSpace=wrap;rounded=0;" parent="UhHAUqcPnpGceWt_KBbi-20" vertex="1">
          <mxGeometry y="33" width="60" height="47" as="geometry" />
        </mxCell>
        <mxCell id="UhHAUqcPnpGceWt_KBbi-35" value="" style="endArrow=none;dashed=1;html=1;dashPattern=1 3;strokeWidth=2;rounded=0;" parent="1" source="UhHAUqcPnpGceWt_KBbi-37" edge="1">
          <mxGeometry width="50" height="50" relative="1" as="geometry">
            <mxPoint x="170" y="300" as="sourcePoint" />
            <mxPoint x="360" y="100" as="targetPoint" />
          </mxGeometry>
        </mxCell>
        <mxCell id="UhHAUqcPnpGceWt_KBbi-38" value="" style="endArrow=none;dashed=1;html=1;dashPattern=1 3;strokeWidth=2;rounded=0;" parent="1" target="UhHAUqcPnpGceWt_KBbi-37" edge="1">
          <mxGeometry width="50" height="50" relative="1" as="geometry">
            <mxPoint x="170" y="300" as="sourcePoint" />
            <mxPoint x="360" y="100" as="targetPoint" />
          </mxGeometry>
        </mxCell>
        <mxCell id="UhHAUqcPnpGceWt_KBbi-37" value="Title: Brand Name" style="text;html=1;align=center;verticalAlign=middle;whiteSpace=wrap;rounded=0;" parent="1" vertex="1">
          <mxGeometry x="220" y="183" width="100" height="30" as="geometry" />
        </mxCell>
        <mxCell id="UhHAUqcPnpGceWt_KBbi-41" value="" style="endArrow=none;dashed=1;html=1;dashPattern=1 3;strokeWidth=2;rounded=0;entryX=0;entryY=0.617;entryDx=0;entryDy=0;entryPerimeter=0;" parent="1" target="UhHAUqcPnpGceWt_KBbi-2" edge="1">
          <mxGeometry width="50" height="50" relative="1" as="geometry">
            <mxPoint x="330" y="196.75" as="sourcePoint" />
            <mxPoint x="370" y="110" as="targetPoint" />
          </mxGeometry>
        </mxCell>
        <mxCell id="YvvrI0TX-WZbmm7OATJ2-3" value="" style="group" parent="1" vertex="1" connectable="0">
          <mxGeometry x="490" y="162" width="60" height="80" as="geometry" />
        </mxCell>
        <mxCell id="YvvrI0TX-WZbmm7OATJ2-4" value="" style="group" parent="YvvrI0TX-WZbmm7OATJ2-3" vertex="1" connectable="0">
          <mxGeometry width="60" height="80" as="geometry" />
        </mxCell>
        <mxCell id="YvvrI0TX-WZbmm7OATJ2-5" value="" style="sketch=0;points=[[0,0,0],[0.25,0,0],[0.5,0,0],[0.75,0,0],[1,0,0],[0,1,0],[0.25,1,0],[0.5,1,0],[0.75,1,0],[1,1,0],[0,0.25,0],[0,0.5,0],[0,0.75,0],[1,0.25,0],[1,0.5,0],[1,0.75,0]];points=[[0,0,0],[0.25,0,0],[0.5,0,0],[0.75,0,0],[1,0,0],[0,1,0],[0.25,1,0],[0.5,1,0],[0.75,1,0],[1,1,0],[0,0.25,0],[0,0.5,0],[0,0.75,0],[1,0.25,0],[1,0.5,0],[1,0.75,0]];outlineConnect=0;fontColor=#232F3E;fillColor=#E7157B;strokeColor=#ffffff;dashed=0;verticalLabelPosition=bottom;verticalAlign=top;align=center;html=1;fontSize=12;fontStyle=0;aspect=fixed;shape=mxgraph.aws4.resourceIcon;resIcon=mxgraph.aws4.chatbot;" parent="YvvrI0TX-WZbmm7OATJ2-4" vertex="1">
          <mxGeometry x="10" width="35" height="35" as="geometry" />
        </mxCell>
        <mxCell id="YvvrI0TX-WZbmm7OATJ2-6" value="Chatbot&lt;div&gt;4&lt;/div&gt;" style="text;html=1;align=center;verticalAlign=middle;whiteSpace=wrap;rounded=0;" parent="YvvrI0TX-WZbmm7OATJ2-4" vertex="1">
          <mxGeometry y="30" width="60" height="50" as="geometry" />
        </mxCell>
        <mxCell id="YvvrI0TX-WZbmm7OATJ2-9" value="&lt;div style=&quot;&quot;&gt;&lt;b style=&quot;background-color: transparent; color: light-dark(rgb(0, 0, 0), rgb(255, 255, 255));&quot;&gt;Solution-1&lt;/b&gt;&lt;span style=&quot;background-color: transparent; color: light-dark(rgb(0, 0, 0), rgb(255, 255, 255));&quot;&gt;:&amp;nbsp;&lt;/span&gt;&lt;/div&gt;&lt;div&gt;1. Chatbots will be working country wise with separate mobile numbers as per brands with same country e.g. UAE&lt;/div&gt;&lt;div style=&quot;&quot;&gt;2. Charges will be applicable based on the customer&#39;s geography not on Chatbot number country.&lt;/div&gt;" style="text;html=1;align=left;verticalAlign=middle;whiteSpace=wrap;rounded=0;" parent="1" vertex="1">
          <mxGeometry x="16" y="480" width="660" height="40" as="geometry" />
        </mxCell>
        <mxCell id="YvvrI0TX-WZbmm7OATJ2-10" value="&lt;div style=&quot;&quot;&gt;&lt;u&gt;&lt;b style=&quot;background-color: transparent; color: light-dark(rgb(0, 0, 0), rgb(255, 255, 255));&quot;&gt;Solution-2&lt;/b&gt;&lt;span style=&quot;background-color: transparent; color: light-dark(rgb(0, 0, 0), rgb(255, 255, 255));&quot;&gt;:&amp;nbsp;&lt;/span&gt;&lt;/u&gt;&lt;/div&gt;&lt;div style=&quot;&quot;&gt;1. Chatbots will be centralized and Chatbot title will be Americana - ALMP.&lt;/div&gt;&lt;div style=&quot;&quot;&gt;2. Charges will be applicable based on the customer&#39;s geography not on Chatbot number country.&lt;/div&gt;" style="text;html=1;align=left;verticalAlign=middle;whiteSpace=wrap;rounded=0;" parent="1" vertex="1">
          <mxGeometry x="16" y="540" width="660" height="40" as="geometry" />
        </mxCell>
        <mxCell id="MYbAT_iX-tRsLvWn8Yxn-1" value="&lt;span style=&quot;color: rgb(0, 0, 0); text-wrap: wrap;&quot;&gt;&lt;font style=&quot;font-size: 8px;&quot;&gt;Mobile No. 4 (KFC | HRD |PH | WPY)&lt;/font&gt;&lt;/span&gt;" style="sketch=0;outlineConnect=0;fontColor=#232F3E;gradientColor=none;strokeColor=#232F3E;fillColor=#ffffff;dashed=0;verticalLabelPosition=bottom;verticalAlign=top;align=center;html=1;fontSize=12;fontStyle=0;aspect=fixed;shape=mxgraph.aws4.resourceIcon;resIcon=mxgraph.aws4.mobile_client;" parent="1" vertex="1">
          <mxGeometry x="617" y="153" width="60" height="60" as="geometry" />
        </mxCell>
        <mxCell id="MYbAT_iX-tRsLvWn8Yxn-2" value="&lt;table style=&quot;border-collapse:&lt;br/&gt; collapse;width:248pt&quot; width=&quot;332&quot; cellspacing=&quot;0&quot; cellpadding=&quot;0&quot; border=&quot;0&quot;&gt;&lt;colgroup&gt;&lt;col style=&quot;mso-width-source:userset;mso-width-alt:853;width:18pt&quot; width=&quot;24&quot;&gt;&lt;/colgroup&gt;&lt;colgroup&gt;&lt;col style=&quot;mso-width-source:userset;mso-width-alt:2190;width:46pt&quot; width=&quot;62&quot;&gt;&lt;/colgroup&gt;&lt;colgroup&gt;&lt;col style=&quot;mso-width-source:userset;mso-width-alt:6030;width:127pt&quot; width=&quot;170&quot;&gt;&lt;/colgroup&gt;&lt;colgroup&gt;&lt;col style=&quot;mso-width-source:userset;mso-width-alt:2702;width:57pt&quot; width=&quot;76&quot;&gt;&lt;/colgroup&gt;&lt;tbody&gt;&lt;tr style=&quot;height:36.6pt&quot; height=&quot;49&quot;&gt;&lt;td style=&quot;height:36.6pt;width:18pt&quot; width=&quot;24&quot; class=&quot;xl64&quot; height=&quot;49&quot;&gt;&lt;br&gt;&lt;/td&gt;  &lt;td style=&quot;border-left:none;width:46pt&quot; width=&quot;62&quot; class=&quot;xl64&quot;&gt;&lt;br&gt;&lt;/td&gt;  &lt;td style=&quot;width:127pt&quot; width=&quot;170&quot; class=&quot;xl65&quot;&gt;&lt;br&gt;&lt;/td&gt;  &lt;td style=&quot;width:57pt&quot; width=&quot;76&quot; class=&quot;xl65&quot;&gt;&lt;br&gt;&lt;br&gt;&lt;br&gt;&lt;/td&gt; &lt;/tr&gt; &lt;tr style=&quot;height:15.0pt&quot; height=&quot;20&quot;&gt;  &lt;td style=&quot;height:15.0pt;width:18pt&quot; width=&quot;24&quot; class=&quot;xl67&quot; height=&quot;20&quot;&gt;1&lt;/td&gt;  &lt;td style=&quot;border-left:none;width:46pt&quot; width=&quot;62&quot; class=&quot;xl68&quot;&gt;&lt;span style=&quot;mso-spacerun:yes&quot;&gt;&amp;nbsp;&lt;/span&gt;KUW&lt;span style=&quot;mso-spacerun:yes&quot;&gt;&amp;nbsp;&lt;/span&gt;&lt;/td&gt;  &lt;td style=&quot;width:127pt&quot; width=&quot;170&quot; class=&quot;xl69&quot;&gt;&lt;span style=&quot;mso-spacerun:yes&quot;&gt;&amp;nbsp;1-&lt;/span&gt;KFC 2-HRD 3-WPY&lt;span style=&quot;mso-spacerun:yes&quot;&gt;&amp;nbsp;&lt;/span&gt;&lt;/td&gt;  &lt;td style=&quot;width:57pt&quot; width=&quot;76&quot; class=&quot;xl69&quot;&gt;&lt;span style=&quot;mso-spacerun:yes&quot;&gt;&amp;nbsp;&lt;/span&gt;&lt;/td&gt; &lt;/tr&gt; &lt;tr style=&quot;height:15.0pt&quot; height=&quot;20&quot;&gt;  &lt;td style=&quot;height:15.0pt;width:18pt&quot; width=&quot;24&quot; class=&quot;xl67&quot; height=&quot;20&quot;&gt;2&lt;/td&gt;  &lt;td style=&quot;border-left:none;width:46pt&quot; width=&quot;62&quot; class=&quot;xl68&quot;&gt;&lt;span style=&quot;mso-spacerun:yes&quot;&gt;&amp;nbsp;&lt;/span&gt;EGP&lt;span style=&quot;mso-spacerun:yes&quot;&gt;&amp;nbsp;&lt;/span&gt;&lt;/td&gt;  &lt;td style=&quot;width:127pt&quot; width=&quot;170&quot; class=&quot;xl69&quot;&gt;&lt;span style=&quot;mso-spacerun:yes&quot;&gt;&amp;nbsp;1-&lt;/span&gt;KFC 2-HRD 3-PH 4-WPY&lt;/td&gt;  &lt;td style=&quot;width:57pt&quot; width=&quot;76&quot; class=&quot;xl69&quot;&gt;&lt;span style=&quot;mso-spacerun:yes&quot;&gt;&amp;nbsp;&lt;/span&gt;&lt;/td&gt; &lt;/tr&gt; &lt;tr style=&quot;height:15.0pt&quot; height=&quot;20&quot;&gt;  &lt;td style=&quot;height:15.0pt;width:18pt&quot; width=&quot;24&quot; class=&quot;xl70&quot; height=&quot;20&quot;&gt;3&lt;/td&gt;  &lt;td style=&quot;border-left:none;width:46pt&quot; width=&quot;62&quot; class=&quot;xl71&quot;&gt;&lt;span style=&quot;mso-spacerun:yes&quot;&gt;&amp;nbsp;&lt;/span&gt;KSA&lt;span style=&quot;mso-spacerun:yes&quot;&gt;&amp;nbsp;&lt;/span&gt;&lt;/td&gt;  &lt;td style=&quot;width:127pt&quot; width=&quot;170&quot; class=&quot;xl72&quot;&gt;&lt;span style=&quot;mso-spacerun:yes&quot;&gt;&amp;nbsp;1-&lt;/span&gt;KFC 2-HRD 3-PH&lt;span style=&quot;mso-spacerun:yes&quot;&gt;&amp;nbsp;&lt;/span&gt;&lt;/td&gt;  &lt;td style=&quot;width:57pt&quot; width=&quot;76&quot; class=&quot;xl72&quot;&gt;&lt;span style=&quot;mso-spacerun:yes&quot;&gt;&amp;nbsp;&lt;/span&gt;&lt;/td&gt; &lt;/tr&gt;&lt;/tbody&gt;&lt;/table&gt;" style="text;whiteSpace=wrap;html=1;fontStyle=1" parent="1" vertex="1">
          <mxGeometry y="4" width="360" height="130" as="geometry" />
        </mxCell>
        <mxCell id="MYbAT_iX-tRsLvWn8Yxn-13" value="&lt;h1 style=&quot;margin-top: 0px;&quot;&gt;1. Customer Location&lt;/h1&gt;&lt;p&gt;For non-digital orders the communication will start to request for the customer lat,long.&lt;/p&gt;" style="text;html=1;whiteSpace=wrap;overflow=hidden;rounded=0;" parent="1" vertex="1">
          <mxGeometry x="1246" width="310" height="79" as="geometry" />
        </mxCell>
        <mxCell id="MYbAT_iX-tRsLvWn8Yxn-15" value="&lt;h1 style=&quot;margin-top: 0px;&quot;&gt;2. Order Status&lt;/h1&gt;&lt;p&gt;For all digital and non-digital the message will be triggered with options to:&lt;/p&gt;&lt;p&gt;1. Get Current Order Status/ETA&lt;/p&gt;&lt;p&gt;2. Realtime Rider Tracking Link&lt;/p&gt;&lt;p&gt;3.Connect with Rider (Mobile No,)&lt;/p&gt;" style="text;html=1;whiteSpace=wrap;overflow=hidden;rounded=0;" parent="1" vertex="1">
          <mxGeometry x="1246" y="82" width="310" height="180" as="geometry" />
        </mxCell>
        <mxCell id="MYbAT_iX-tRsLvWn8Yxn-16" value="&lt;h1 style=&quot;margin-top: 0px;&quot;&gt;3. Customer Feedback&lt;/h1&gt;&lt;p&gt;The message will be trigger for the following options:&lt;/p&gt;&lt;p&gt;1. Driver Rating (1,2,3,4 and 5)&lt;/p&gt;&lt;p&gt;2. Customer Feedback.&lt;/p&gt;" style="text;html=1;whiteSpace=wrap;overflow=hidden;rounded=0;" parent="1" vertex="1">
          <mxGeometry x="1246" y="245" width="310" height="130" as="geometry" />
        </mxCell>
        <mxCell id="MYbAT_iX-tRsLvWn8Yxn-54" value="" style="endArrow=classic;html=1;rounded=0;" parent="1" edge="1">
          <mxGeometry width="50" height="50" relative="1" as="geometry">
            <mxPoint x="1153" y="252.66999999999996" as="sourcePoint" />
            <mxPoint x="1154" y="288" as="targetPoint" />
          </mxGeometry>
        </mxCell>
        <mxCell id="MYbAT_iX-tRsLvWn8Yxn-55" value="&lt;h1 style=&quot;margin-top: 0px;&quot;&gt;&lt;font style=&quot;color: rgb(204, 102, 0);&quot;&gt;4. Order Now (Pilot)&lt;/font&gt;&lt;/h1&gt;&lt;p&gt;&lt;span style=&quot;background-color: transparent; color: light-dark(rgb(0, 0, 0), rgb(255, 255, 255));&quot;&gt;For non-digital orders callcenter executive will be sending offers message manually to the active sessions:&lt;/span&gt;&lt;/p&gt;&lt;p&gt;&lt;span style=&quot;background-color: transparent; color: light-dark(rgb(0, 0, 0), rgb(255, 255, 255));&quot;&gt;1. Top 5 Deals Menu&lt;/span&gt;&lt;br&gt;&lt;/p&gt;&lt;p&gt;2. Add-ons (optional)&lt;/p&gt;&lt;p&gt;3. Order Now&lt;/p&gt;" style="text;html=1;whiteSpace=wrap;overflow=hidden;rounded=0;" parent="1" vertex="1">
          <mxGeometry x="1246" y="373" width="310" height="174" as="geometry" />
        </mxCell>
        <mxCell id="MYbAT_iX-tRsLvWn8Yxn-17" value="" style="rounded=0;whiteSpace=wrap;html=1;fillColor=#f5f5f5;fontColor=#333333;strokeColor=#666666;" parent="1" vertex="1">
          <mxGeometry x="855" y="27" width="370" height="483" as="geometry" />
        </mxCell>
        <mxCell id="MYbAT_iX-tRsLvWn8Yxn-3" value="Americana&lt;div&gt;Delivery Orders&lt;/div&gt;" style="rounded=1;whiteSpace=wrap;html=1;" parent="1" vertex="1">
          <mxGeometry x="990.3658536585366" y="35.717948717948715" width="108.29268292682927" height="52.30769230769231" as="geometry" />
        </mxCell>
        <mxCell id="MYbAT_iX-tRsLvWn8Yxn-4" value="Digital&lt;div&gt;Orders&lt;/div&gt;" style="rounded=1;whiteSpace=wrap;html=1;" parent="1" vertex="1">
          <mxGeometry x="882.0731707317074" y="106.33333333333333" width="108.29268292682927" height="52.30769230769231" as="geometry" />
        </mxCell>
        <mxCell id="MYbAT_iX-tRsLvWn8Yxn-5" value="Non-Digital&lt;div&gt;Orders&lt;/div&gt;" style="rounded=1;whiteSpace=wrap;html=1;" parent="1" vertex="1">
          <mxGeometry x="1098.658536585366" y="106.33333333333333" width="108.29268292682927" height="52.30769230769231" as="geometry" />
        </mxCell>
        <mxCell id="MYbAT_iX-tRsLvWn8Yxn-7" value="" style="endArrow=none;html=1;rounded=0;entryX=0;entryY=0.5;entryDx=0;entryDy=0;" parent="1" target="MYbAT_iX-tRsLvWn8Yxn-5" edge="1">
          <mxGeometry width="50" height="50" relative="1" as="geometry">
            <mxPoint x="990.3658536585366" y="131.6153846153846" as="sourcePoint" />
            <mxPoint x="1035.4878048780488" y="88.02564102564102" as="targetPoint" />
          </mxGeometry>
        </mxCell>
        <mxCell id="MYbAT_iX-tRsLvWn8Yxn-8" value="WA Chatbot&lt;div&gt;Start #2&lt;/div&gt;" style="rounded=1;whiteSpace=wrap;html=1;" parent="1" vertex="1">
          <mxGeometry x="882.0731707317074" y="201.35897435897436" width="108.29268292682927" height="52.30769230769231" as="geometry" />
        </mxCell>
        <mxCell id="MYbAT_iX-tRsLvWn8Yxn-9" value="WA Chatbot&lt;div&gt;Start #1&lt;/div&gt;" style="rounded=1;whiteSpace=wrap;html=1;" parent="1" vertex="1">
          <mxGeometry x="1098.658536585366" y="201.35897435897436" width="108.29268292682927" height="52.30769230769231" as="geometry" />
        </mxCell>
        <mxCell id="MYbAT_iX-tRsLvWn8Yxn-10" value="" style="endArrow=classic;html=1;rounded=0;exitX=0.5;exitY=1;exitDx=0;exitDy=0;" parent="1" source="MYbAT_iX-tRsLvWn8Yxn-3" edge="1">
          <mxGeometry width="50" height="50" relative="1" as="geometry">
            <mxPoint x="999.390243902439" y="175.2051282051282" as="sourcePoint" />
            <mxPoint x="1044.5121951219512" y="131.6153846153846" as="targetPoint" />
          </mxGeometry>
        </mxCell>
        <mxCell id="MYbAT_iX-tRsLvWn8Yxn-11" value="" style="endArrow=classic;html=1;rounded=0;exitX=0.5;exitY=1;exitDx=0;exitDy=0;" parent="1" edge="1">
          <mxGeometry width="50" height="50" relative="1" as="geometry">
            <mxPoint x="935.7412195121951" y="158.64102564102564" as="sourcePoint" />
            <mxPoint x="935.7412195121951" y="202.23076923076923" as="targetPoint" />
          </mxGeometry>
        </mxCell>
        <mxCell id="MYbAT_iX-tRsLvWn8Yxn-12" value="" style="endArrow=classic;html=1;rounded=0;exitX=0.5;exitY=1;exitDx=0;exitDy=0;" parent="1" edge="1">
          <mxGeometry width="50" height="50" relative="1" as="geometry">
            <mxPoint x="1152.3265853658536" y="157.76923076923077" as="sourcePoint" />
            <mxPoint x="1152.3265853658536" y="201.35897435897436" as="targetPoint" />
          </mxGeometry>
        </mxCell>
        <mxCell id="MYbAT_iX-tRsLvWn8Yxn-18" value="1. KUW&lt;div&gt;2. EGY&lt;/div&gt;&lt;div&gt;3. KSA&lt;/div&gt;" style="text;html=1;align=center;verticalAlign=middle;whiteSpace=wrap;rounded=0;fontStyle=5" parent="1" vertex="1">
          <mxGeometry x="855" y="35.72" width="90" height="34.28" as="geometry" />
        </mxCell>
        <mxCell id="MYbAT_iX-tRsLvWn8Yxn-19" value="WA Chatbot&lt;div&gt;(Delivered Order)&lt;/div&gt;&lt;div&gt;Start #3&lt;/div&gt;" style="rounded=1;whiteSpace=wrap;html=1;" parent="1" vertex="1">
          <mxGeometry x="882.0731707317074" y="288.53846153846155" width="108.29268292682927" height="52.30769230769231" as="geometry" />
        </mxCell>
        <mxCell id="MYbAT_iX-tRsLvWn8Yxn-21" value="WA Chatbot&lt;div&gt;(Delivered Order)&lt;/div&gt;&lt;div&gt;Start #3&lt;/div&gt;" style="rounded=1;whiteSpace=wrap;html=1;" parent="1" vertex="1">
          <mxGeometry x="1098.658536585366" y="288.53846153846155" width="108.29268292682927" height="52.30769230769231" as="geometry" />
        </mxCell>
        <mxCell id="MYbAT_iX-tRsLvWn8Yxn-53" value="" style="endArrow=classic;html=1;rounded=0;" parent="1" target="MYbAT_iX-tRsLvWn8Yxn-19" edge="1">
          <mxGeometry width="50" height="50" relative="1" as="geometry">
            <mxPoint x="935" y="253.67" as="sourcePoint" />
            <mxPoint x="985" y="203.67" as="targetPoint" />
          </mxGeometry>
        </mxCell>
        <mxCell id="MYbAT_iX-tRsLvWn8Yxn-61" value="" style="rounded=1;whiteSpace=wrap;html=1;fillColor=#ffe6cc;strokeColor=#d79b00;" parent="1" vertex="1">
          <mxGeometry x="1096" y="374.31" width="118" height="118.69" as="geometry" />
        </mxCell>
        <mxCell id="MYbAT_iX-tRsLvWn8Yxn-58" value="" style="endArrow=classic;html=1;rounded=0;exitX=0.5;exitY=1;exitDx=0;exitDy=0;entryX=0.5;entryY=0;entryDx=0;entryDy=0;" parent="1" source="MYbAT_iX-tRsLvWn8Yxn-9" target="MYbAT_iX-tRsLvWn8Yxn-21" edge="1">
          <mxGeometry width="50" height="50" relative="1" as="geometry">
            <mxPoint x="1155" y="320" as="sourcePoint" />
            <mxPoint x="1205" y="270" as="targetPoint" />
          </mxGeometry>
        </mxCell>
        <mxCell id="MYbAT_iX-tRsLvWn8Yxn-59" value="" style="endArrow=classic;html=1;rounded=0;exitX=0.5;exitY=1;exitDx=0;exitDy=0;entryX=0.5;entryY=0;entryDx=0;entryDy=0;" parent="1" edge="1">
          <mxGeometry width="50" height="50" relative="1" as="geometry">
            <mxPoint x="1154" y="341" as="sourcePoint" />
            <mxPoint x="1154" y="376" as="targetPoint" />
          </mxGeometry>
        </mxCell>
        <mxCell id="MYbAT_iX-tRsLvWn8Yxn-62" value="WA Chatbot&lt;div&gt;Send Manual Offers &amp;amp; Place New Order #4&lt;/div&gt;&lt;div&gt;&lt;i&gt;(Pilot Version)&lt;/i&gt;&lt;/div&gt;" style="rounded=1;whiteSpace=wrap;html=1;" parent="1" vertex="1">
          <mxGeometry x="1101" y="376" width="108.29" height="114" as="geometry" />
        </mxCell>
        <mxCell id="7OUith5Lp7mWz0crKs82-1" value="" style="rounded=1;whiteSpace=wrap;html=1;fillColor=#ffe6cc;strokeColor=#d79b00;" parent="1" vertex="1">
          <mxGeometry x="877.22" y="373.31" width="118" height="118.69" as="geometry" />
        </mxCell>
        <mxCell id="7OUith5Lp7mWz0crKs82-2" value="" style="endArrow=classic;html=1;rounded=0;exitX=0.5;exitY=1;exitDx=0;exitDy=0;entryX=0.5;entryY=0;entryDx=0;entryDy=0;" parent="1" edge="1">
          <mxGeometry width="50" height="50" relative="1" as="geometry">
            <mxPoint x="935.22" y="340" as="sourcePoint" />
            <mxPoint x="935.22" y="375" as="targetPoint" />
          </mxGeometry>
        </mxCell>
        <mxCell id="7OUith5Lp7mWz0crKs82-3" value="WA Chatbot&lt;div&gt;Send Manual Offers &amp;amp; Place New Order #4&lt;/div&gt;&lt;div&gt;&lt;i&gt;(Pilot Version)&lt;/i&gt;&lt;/div&gt;" style="rounded=1;whiteSpace=wrap;html=1;" parent="1" vertex="1">
          <mxGeometry x="882.22" y="375" width="108.29" height="114" as="geometry" />
        </mxCell>
      </root>
    </mxGraphModel>
  </diagram>
</mxfile>
